<svg fill="none" height="43" viewBox="0 0 140 43" width="140" xmlns="http://www.w3.org/2000/svg"><g fill="#00b3c7"><path d="m8 25.1255h6.2017c.1445 1.2733.693 2.4259 1.594 3.3457 1.0725 1.0941 2.5341 1.7218 4.0099 1.7218 1.463 0 2.8672-.6111 3.956-1.7218 1.0678-1.0893 1.6331-2.4845 1.6331-4.0347v-11.258h6.1828v11.258c0 6.6515-5.2804 12.0635-11.7712 12.0635-6.2071 0-11.45103-5.0792-11.8063-11.3745zm50.9353 1.8458s-16.3059-.1254-17.3353-.1254c.2729 1.0397.8551 1.8369 1.4812 2.5341 1.2563 1.4035 2.8604 2.1448 4.6401 2.1448 1.4475 0 2.9314-.5877 4.0998-1.6177l4.1802 2.8579c-2.1904 2.377-5.2912 3.735-8.5528 3.735-6.5671 0-11.9097-5.4499-11.9097-12.1489s5.3426-12.1496 11.9097-12.1496 11.7691 5.4499 11.7691 12.1489c.0007 1.1596-.2127 2.2061-.2823 2.6209zm-4.936-4.4171-.0857-.3142c-.3073-1.1285-.8632-2.1572-1.6055-2.9729-1.1847-1.3284-2.8563-2.0904-4.5868-2.0904-1.7311 0-3.3804.7434-4.6522 2.1041-.6728.8006-1.2833 1.83-1.5859 2.9303-.0223.0799-.0669.3252-.0669.3252zm9.9442-16.20082v29.47832h5.8046v-29.47832zm50.5945 30.14662c6.257 0 11.746-5.6772 11.746-12.1489v-11.3146h-5.805v11.1465c0 1.7355-.608 3.4615-1.669 4.734-1.14 1.2857-2.735 2.0504-4.272 2.0504-1.534 0-3.103-.7379-4.304-2.0249-1.045-1.3291-1.637-3.0577-1.637-4.7595v-11.1465h-5.805v11.3139c0 6.4723 5.488 12.1496 11.746 12.1496zm-94.7493-32c-2.3092 0-4.1875 1.91607-4.1875 4.27172 0 2.35568 1.8783 4.27238 4.1875 4.27238 2.3093 0 4.1876-1.9167 4.1876-4.27238 0-2.35565-1.8783-4.27172-4.1876-4.27172zm78.899 19.9062c0 6.7817-5.4709 12.0938-12.4554 12.0938-3.3359 0-6.457-1.2533-8.7899-3.529-2.3288-2.2723-3.6114-5.3141-3.6114-8.5648 0-6.6687 5.5627-12.0938 12.4013-12.0938 6.8684 0 12.4554 5.4258 12.4554 12.0938zm-5.6951-.0558c0-1.8968-.6788-3.6668-1.9115-4.9827-1.3278-1.4166-2.9407-2.1352-4.7941-2.1352-1.8222 0-3.5284.7772-4.6664 2.1165-1.3144 1.2823-2.0391 3.0784-2.0391 5.0579 0 1.985.6977 3.746 2.01 5.084 1.1847 1.3284 2.8962 2.0904 4.6955 2.0904 1.8291 0 3.4426-.7007 4.7962-2.0814l.0074-.0083c1.2266-1.3711 1.902-3.1962 1.902-5.1412z"/><path d="m127.475 34.1926c0-1.274 1.013-2.3074 2.258-2.3095 1.253-.0021 2.267 1.0362 2.267 2.3081s-1.014 2.3102-2.267 2.3081c-1.245-.0014-2.257-1.0342-2.258-2.3067zm3.986 0c-.004-.9687-.765-1.7576-1.723-1.7583-.95-.0007-1.723.7799-1.724 1.7569 0 .9687.764 1.7576 1.723 1.7583.948.0007 1.719-.7786 1.724-1.7569z"/><path d="m130.798 35.2998c-.014.0007-.022.0014-.03.0014-.169 0-.339 0-.509.0007-.022 0-.036-.0076-.049-.0262-.134-.1888-.269-.3769-.403-.5657-.015-.0207-.03-.0282-.055-.0282-.114.002-.227.002-.341.0007-.024 0-.033.0055-.032.0323.001.1868 0 .3728.001.5595 0 .022-.007.0269-.027.0269-.136-.0007-.272-.0007-.408 0-.019 0-.026-.0042-.026-.0255.001-.7235.001-1.4476 0-2.171 0-.0179.005-.0235.023-.0235.285.0007.57-.0027.856.0035.177.0034.345.0503.494.1523.146.1006.24.2404.284.4147.035.1413.036.2839.005.4251-.041.1874-.136.3404-.295.4486-.02.0137-.024.0234-.008.0454.169.2336.336.4685.504.7028.004.0076.008.0145.016.0262zm-1.419-1.4173c0 .1006 0 .2012-.001.3011 0 .0228.007.029.029.029.105-.0007.21 0 .315-.0007.082 0 .162-.0083.238-.0393.085-.0351.143-.0944.168-.186.015-.0572.015-.1144.009-.1723-.007-.0647-.033-.1212-.081-.1653-.069-.0627-.153-.0875-.242-.0917-.137-.0062-.275-.0041-.412-.0069-.021 0-.023.0104-.023.0269z"/></g></svg>